<svg xmlns="http://www.w3.org/2000/svg" viewBox="0 0 1200 1200" aria-hidden="true">
  <defs>
    <linearGradient id="overcomplicated-gradient" x1="0%" y1="0%" x2="100%" y2="100%">
      <stop offset="0%" stop-color="#f4f1ea"/>
      <stop offset="45%" stop-color="#9aa7ff"/>
      <stop offset="100%" stop-color="#8d92ff"/>
    </linearGradient>
  </defs>
  <path fill="url(#overcomplicated-gradient)" d="m989 211c-103.83-103.83-242-161-389-161s-285.17 57.168-389 161-161 242-161 389c0 77.5 16 152.83 47.332 223.5 2.8359 6.168 9 9.832 15.336 9.832 2.332 0 4.5-0.5 6.832-1.5 8.332-3.668 12.168-13.668 8.5-22-29.668-66.332-44.668-137-44.668-209.83 0-138 53.668-267.83 151.33-365.33 93.504-93.668 216.84-146.84 348.67-151v83c0 9.168 7.5 16.668 16.668 16.668 111.33 0 216 43.332 294.5 122.17 74.832 74.668 117.67 172.83 121.67 277.83l-82.836-0.003907c-9.168 0-16.668 7.5-16.668 16.668 0 84.5-33 164-92.832 223.83-55.832 55.832-129 87.832-207.17 92l0.003907-65.832c0-9.168-7.5-16.668-16.668-16.668s-16.668 7.5-16.668 16.668v65.832c-72.668-3.832-140.67-32-194.83-80.832l118-118c26.5 21.332 59.168 33 93.5 33s67-11.5 93.668-32.832l59.668 59.668c3.332 3.332 7.5 4.832 11.832 4.832s8.5-1.668 11.832-4.832c6.5-6.5 6.5-17 0-23.5l-59.668-59.668c21-26.668 32.668-59.336 32.668-93.668 0-40-15.5-77.668-44-106.17-28.332-28.332-66-43.832-106-43.832s-77.668 15.5-106.17 44c-9 9-17 19.5-23.668 31-4.668 8-1.832 18.168 6.168 22.832 8 4.668 18.168 1.832 22.832-6.168 5.168-9 11.5-17.168 18.332-24.168 22.172-21.996 51.504-34.164 82.504-34.164s60.332 12.168 82.5 34c22 22.336 34.168 51.668 34.168 82.668s-12.168 60.332-34 82.5c-22.336 22-51.668 34.168-82.668 34.168s-60.332-12.168-82.5-34c-22-22.336-34.168-51.668-34.168-82.668 0-9.168-7.5-16.668-16.668-16.668h-82.5c3.832-51.5 25.668-99.5 62.668-136.5 41-41 95.5-63.5 153.17-63.5s112.17 22.5 153.17 63.5c0.83203 0.83203 2 1.332 3.168 2 0.83203 0.5 1.5 1.168 2.332 1.668 0.33203 0.16797 0.66797 0 1 0.16797 3.832 1.332 7.832 1.332 11.668-0.16797 0.16797 0 0.16797-0.16797 0.33203-0.33203 1.832-0.83203 3.668-1.832 5.168-3.332l58.5-58.5c30.332 33.668 53.332 73.668 66.832 116.67 2.168 7.168 8.832 11.668 15.832 11.668 1.668 0 3.332-0.33203 5-0.83203 8.832-2.832 13.668-12.168 10.832-20.832-16.832-53.5-46.668-102.67-86.5-142.5-66-66.008-153.83-102.51-247.33-102.51-87.832 0-170.5 32.5-235.17 91.332l-47.332-47.332c52.5-48.5 116.5-83 186.17-99.5 9-2.168 14.5-11.168 12.332-20s-11.168-14.5-20-12.332c-20.332 4.832-40.168 11-59.5 18.5-57.832 22.5-110.67 56.832-154.83 101.17-84.836 84.996-131.67 197.83-131.67 318.16 0 7.332 0.16797 14.668 0.5 22 0.16797 2.332 0.33203 4.832 0.5 7.168 0.33203 4.832 0.66797 9.832 1 14.668 0.33203 2.832 0.66797 5.668 1 8.668 0.5 4.332 1 8.668 1.668 13 0.5 3 1 6.168 1.5 9.168 0.66797 4 1.332 8.168 2.168 12.168 0.66797 3.168 1.332 6.332 2 9.5 0.83203 3.832 1.668 7.668 2.668 11.5 0.83203 3.168 1.668 6.332 2.5 9.5 1 3.668 2 7.5 3.168 11.168 1 3.168 2 6.332 3 9.5 1.168 3.668 2.332 7.332 3.668 10.832 1.168 3.168 2.332 6.332 3.5 9.5 1.332 3.5 2.668 7 4 10.5 1.332 3.168 2.668 6.332 4 9.332 1.5 3.5 3 6.832 4.5 10.168 1.5 3.168 2.832 6.168 4.332 9.168 1.668 3.332 3.332 6.668 5 10 1.668 3 3.168 6 4.832 9.168 1.832 3.168 3.668 6.5 5.5 9.668 1.668 3 3.5 6 5.332 8.832 2 3.168 4 6.332 6 9.5 1.832 2.832 3.832 5.832 5.668 8.668 2.168 3.168 4.332 6.168 6.5 9.168 2 2.832 4 5.668 6.168 8.332 2.332 3 4.668 6 7 8.832 2.168 2.668 4.332 5.5 6.5 8.168 2.5 2.832 5 5.832 7.5 8.668 2.332 2.668 4.5 5.168 6.832 7.668 0.66797 0.66797 1.332 1.5 1.832 2.168l-59.168 59.332c-6.5 6.5-6.5 17 0 23.5 103.66 103.65 241.83 160.82 388.83 160.82s285.17-57.168 389-161 161-242 161-389-57.168-285.17-161-389zm-83 59.332c-79.332-73.832-180.83-116-289.33-120v-66.668c126.33 4 244.67 52.832 336.67 139.33zm43.168 346.34h67c-3.832 99.5-42.5 192.83-110.17 265.83l-47.332-47.332c55-60.5 86.664-136.84 90.5-218.5zm-349.17 400c-111.33 0-216-43.332-294.5-122.17-74.832-74.668-117.67-172.83-121.67-277.83h66.168c0.33203 0 0.5-0.16797 0.83203-0.16797 4 87.168 39.5 168.67 101.67 231 66.168 66 154 102.5 247.5 102.5 87.832 0 170.5-32.5 235.17-91.332l47.5 47.5c-77.168 71.332-176.84 110.5-282.67 110.5zm-414.83-456.67c1.168-12 2.832-23.668 5-35.332 0.16797-1.332 0.33203-2.5 0.66797-3.832 2.168-11.332 4.832-22.5 8-33.5 0.5-1.5 0.83203-3 1.332-4.5 3.168-10.832 6.832-21.5 10.832-32 0.66797-1.668 1.168-3.332 1.832-4.832 4.168-10.332 8.668-20.5 13.668-30.5 0.83203-1.668 1.668-3.168 2.5-4.832 5-9.832 10.5-19.668 16.5-29.168 1-1.5 1.832-3 2.832-4.5 6-9.5 12.5-18.832 19.332-27.832 1-1.332 2-2.5 3-3.832 7.168-9.168 14.5-18 22.5-26.668 0.33203-0.33203 0.66797-0.66797 1-1l47.332 47.332c-55.168 60.5-86.668 137-90.5 218.67-0.49609-0.17188-0.66406-0.33984-0.99609-0.33984h-65.832c0.33203-7 0.33203-14 1-21v-2.332zm297.66 133.67-47.168 47.168c-30.168-35.168-48-78.168-51.5-124.17h66.832c3.1719 28.164 14.004 54.664 31.836 77zm-59.664-270.5c-47.168 47.5-73.168 110.16-73.168 176.83 0 61 22 118.67 62 164.33l-47.332 47.332c-52.668-58.164-81.336-132.66-81.336-211.66 0-84.5 33-164 92.832-223.83 55.832-55.832 129-87.832 207.17-92v66.668c-60.332 3.9961-116.66 29.164-160.16 72.332zm341.16-11.168c-41.5-36.332-92.832-57.668-147.67-61.168v-66.668c72.668 3.832 141 31.668 195.17 80.5zm-470.33 517.67c79.332 74 181 116 289.5 120v0.33203 66.332c-126.33-4-244.67-53-336.67-139.33zm671.33 35.664c-93.668 93.668-216.83 146.67-348.67 150.83l0.003907-66.164v-0.33203c114-4.168 220.5-50.332 301.5-131.5 85-85 131.83-197.84 131.83-318.17 0-114.67-42.668-222.67-120.33-306l47.168-47.168c90.164 96 139.83 220.67 139.83 353.17 0 138-53.668 267.83-151.34 365.33z"/>
</svg>
