<svg xmlns="http://www.w3.org/2000/svg" viewBox="0 0 1200 1200" aria-hidden="true">
  <defs>
    <linearGradient id="path-gradient" x1="0%" y1="0%" x2="100%" y2="100%">
      <stop offset="0%" stop-color="#f4f1ea"/>
      <stop offset="45%" stop-color="#9aa7ff"/>
      <stop offset="100%" stop-color="#8d92ff"/>
    </linearGradient>
  </defs>
  <g fill="url(#path-gradient)">
    <path d="m681.37 828.94c-21.562-5.625-54.375-14.062-58.312-21 5.4375-14.438 31.5-24.375 59.25-34.688 48.75-18.375 109.5-41.25 115.5-111.19 5.25-61.312-52.875-80.062-91.312-92.25-11.438-3.5625-22.125-7.125-30.562-11.062-26.25-12.188-20.25-47.438-20.062-48.938 1.6875-9.375-3.5625-18.375-12.562-21.375s-18.75 1.3125-22.688 9.9375c-0.75 1.6875-19.688 43.688 15.375 88.312 8.625 11.062 17.25 19.5 24.938 27 18.938 18.562 23.25 23.812 18.188 41.25-6.75 10.125-56.062 25.5-92.25 36.938-81 25.312-172.87 54.188-186.37 111.19-4.125 17.25-2.0625 32.438 5.8125 45.188 15.375 24.75 47.625 32.25 78.938 39.562 30 6.9375 51.188 12.75 51.375 22.688-12.375 25.312-185.44 63-377.81 82.312-10.312 1.125-17.812 10.312-16.875 20.625 1.125 10.312 10.125 17.812 20.625 16.875 187.31-18.75 410.63-54.562 411.37-117.75 0.5625-42.375-44.062-52.875-80.062-61.125-22.688-5.25-48.375-11.25-55.5-22.688-0.9375-1.5-3.75-6-1.125-16.875 8.4375-36.188 96.562-63.75 161.06-84 71.25-22.312 108.75-35.062 116.44-60.75s2.625-42.938-7.125-57c34.875 11.812 55.312 22.875 53.062 49.312-3.5625 43.125-38.438 59.438-91.312 79.312-35.812 13.5-69.75 26.25-81.188 56.625-5.0625 13.312-2.0625 23.812 1.3125 30.188 11.25 21.75 42.75 30 82.688 40.312 65.438 17.062 115.5 33.375 115.5 77.062 0 79.125-140.81 159.74-195.19 184.31-9.375 4.3125-13.688 15.375-9.375 24.75 3.1875 6.9375 9.9375 11.062 17.062 11.062 2.625 0 5.25-0.5625 7.6875-1.6875 8.8125-3.9375 217.31-99 217.31-218.44 0-76.125-83.062-97.688-143.63-113.44z"/>
    <path d="m1054.3 448.5 35.062-58.688 39.562 52.688c6.1875 8.25 18 9.9375 26.25 3.75s9.9375-18 3.75-26.25l-56.25-75c-3.75-5.0625-9.75-7.6875-15.938-7.5-6.1875 0.375-11.812 3.75-15.188 9.1875l-41.438 69.375-108.75-145.87c-3.75-5.0625-9.75-8.0625-16.125-7.5-6.375 0.375-12 3.9375-15.188 9.375l-61.5 106.69-212.81-332.63-0.1875-0.1875c-0.5625-0.9375-1.6875-1.6875-2.4375-2.625-0.9375-0.9375-1.6875-2.0625-2.8125-2.625l-0.1875-0.1875c-0.75-0.5625-1.5-0.5625-2.4375-0.9375-1.3125-0.5625-2.625-1.3125-4.125-1.6875-1.125-0.1875-2.25 0-3.5625 0h-3.5625c-1.5 0.375-2.8125 0.9375-4.125 1.6875-0.75 0.375-1.6875 0.375-2.4375 0.9375l-0.1875 0.1875c-1.125 0.75-1.875 1.6875-2.8125 2.625s-1.875 1.6875-2.625 2.625l-0.1875 0.1875-212.63 332.26-61.5-106.5c-3.1875-5.4375-8.8125-9-15.188-9.375-6.375-0.5625-12.375 2.4375-16.125 7.5l-108.75 145.87-41.438-69.375c-3.1875-5.4375-8.8125-8.8125-15.188-9.1875-6.1875-0.375-12.188 2.4375-15.938 7.5l-56.25 75c-6.1875 8.25-4.5 20.062 3.75 26.25s20.062 4.5 26.25-3.75l39.562-52.688 35.062 58.688-104.62 140.26c-6.1875 8.25-4.5 20.062 3.75 26.25 3.375 2.4375 7.3125 3.75 11.25 3.75 5.8125 0 11.438-2.625 15-7.5l112.12-150.37 108.38-145.5 57 98.812-64.5 100.88c-5.625 8.8125-3 20.25 5.625 25.875 3.1875 2.0625 6.5625 3 10.125 3 6.1875 0 12.188-3 15.75-8.625l144.74-226.13 50.25 42.375c3.5625 3 7.875 4.3125 12 4.3125s8.625-1.5 12-4.3125l65.062-54.562 65.062 54.562c3.5625 3 7.875 4.3125 12 4.3125s8.625-1.5 12-4.5l50.25-42.375 144.74 226.13c3.5625 5.625 9.5625 8.625 15.75 8.625 3.375 0 6.9375-0.9375 10.125-3 8.625-5.625 11.25-17.25 5.625-25.875l-64.5-100.88 57-98.812 108.38 145.31 112.12 150.37c3.75 4.875 9.375 7.5 15 7.5 3.9375 0 7.875-1.125 11.25-3.75 8.25-6.1875 9.9375-18 3.75-26.25l-104.62-140.26zm-377.26-136.13-65.062-54.562s-1.3125-0.5625-1.875-0.9375c-1.125-0.75-2.0625-1.3125-3.375-1.875-1.125-0.375-2.25-0.75-3.375-0.9375s-2.25-0.375-3.5625-0.375c-1.125 0-2.25 0-3.5625 0.375-1.125 0.1875-2.25 0.5625-3.375 0.9375s-2.25 1.125-3.1875 1.875c-0.5625 0.375-1.3125 0.5625-1.875 0.9375l-65.062 54.562-42-35.438 119.06-186 119.06 186-42 35.438z"/>
    <path d="m1090.9 989.06 20.438-9.5625c5.25-2.4375 9.1875-7.3125 10.5-13.125s-0.375-11.812-4.125-16.125l-44.438-51.375 15.188-7.875c5.0625-2.625 8.625-7.3125 9.75-12.75s0-11.25-3.75-15.562l-79.125-99.375s-1.125-0.9375-1.6875-1.3125c-0.5625-0.5625-0.75-1.125-1.3125-1.5-0.375-0.375-0.9375-0.375-1.5-0.75-1.125-0.75-2.25-1.3125-3.375-1.6875s-2.25-0.75-3.375-1.125c-1.125-0.1875-2.25-0.1875-3.5625-0.1875-1.125 0-2.4375 0-3.5625 0.375-1.125 0.1875-2.25 0.5625-3.375 1.125s-2.25 0.9375-3.375 1.6875c-0.375 0.375-0.9375 0.375-1.5 0.75s-0.75 1.125-1.3125 1.5c-0.5625 0.5625-1.125 0.75-1.6875 1.3125l-79.125 99.375c-3.5625 4.3125-4.875 10.125-3.75 15.562s4.6875 10.125 9.75 12.75l15.188 7.875-44.438 51.375c-3.9375 4.5-5.4375 10.5-4.125 16.125 1.3125 5.8125 5.0625 10.5 10.5 13.125l20.438 9.5625-43.5 65.062c-3.75 5.8125-4.125 13.125-0.9375 19.125s9.5625 9.9375 16.312 9.9375l99.562 1.125v59.25c0 10.312 8.4375 18.75 18.75 18.75s18.75-8.4375 18.75-18.75v-59.25l99.562-1.125c6.9375 0 13.125-3.9375 16.312-9.9375s2.8125-13.5-0.9375-19.125l-43.5-65.062zm-90.188 58.125-83.25-0.9375 36.375-54.562c3-4.5 3.9375-10.125 2.4375-15.375s-5.25-9.5625-10.125-12l-17.812-8.25 43.875-50.625c3.75-4.3125 5.25-10.125 4.3125-15.75-1.125-5.625-4.6875-10.5-9.75-13.125l-16.125-8.25 50.25-63 50.25 63-16.125 8.25c-5.0625 2.625-8.8125 7.5-9.75 13.125-1.125 5.625 0.375 11.438 4.125 15.75l43.875 50.625-17.812 8.25c-4.875 2.25-8.625 6.75-10.125 12s-0.5625 10.875 2.4375 15.375l36.375 54.562-83.25 0.9375z"/>
    <path d="m194.44 918.74c0 10.312 8.4375 18.75 18.75 18.75s18.75-8.4375 18.75-18.75v-48.75l83.438-0.9375c6.9375 0 13.125-3.9375 16.312-9.9375s2.8125-13.5-0.9375-19.125l-36-53.812 15-6.9375c5.25-2.4375 9.1875-7.3125 10.5-13.125s-0.375-11.812-4.125-16.125l-36.375-42 10.312-5.25c5.0625-2.625 8.625-7.3125 9.75-12.75s0-11.25-3.75-15.562l-68.438-85.875s-1.125-0.9375-1.6875-1.3125c-0.5625-0.5625-0.75-1.125-1.3125-1.6875-0.375-0.375-0.9375-0.375-1.5-0.75-1.125-0.75-2.25-1.3125-3.375-1.6875s-2.0625-0.75-3.375-1.125c-1.125-0.1875-2.4375-0.375-3.5625-0.375s-2.25 0-3.5625 0.1875c-1.125 0.1875-2.25 0.5625-3.375 1.125s-2.25 0.9375-3.375 1.6875c-0.375 0.375-0.9375 0.375-1.5 0.75s-0.9375 1.125-1.3125 1.6875c-0.5625 0.5625-1.125 0.75-1.6875 1.3125l-68.438 85.875c-3.5625 4.3125-4.875 10.125-3.75 15.562s4.6875 10.125 9.75 12.75l10.312 5.25-36.375 42c-3.9375 4.5-5.4375 10.5-4.125 16.125 1.3125 5.8125 5.0625 10.5 10.5 13.125l15 6.9375-35.812 53.812c-3.75 5.8125-4.125 13.125-0.9375 19.125s9.5625 9.9375 16.312 9.9375l83.438 0.9375v48.75zm-48.562-86.812 28.875-43.312c3-4.5 3.9375-10.125 2.4375-15.375s-5.25-9.5625-10.125-12l-12.375-5.8125 35.625-41.25c3.75-4.3125 5.25-10.125 4.3125-15.75-1.125-5.625-4.6875-10.5-9.75-13.125l-11.25-5.8125 39.562-49.5 39.562 49.5-11.25 5.8125c-5.0625 2.625-8.8125 7.5-9.75 13.125-1.125 5.625 0.375 11.438 4.3125 15.75l35.625 41.25-12.375 5.8125c-4.875 2.25-8.625 6.75-10.125 12s-0.5625 10.875 2.4375 15.375l28.875 43.312-67.312 0.75z"/>
  </g>
</svg>
