<svg xmlns="http://www.w3.org/2000/svg" viewBox="0 0 1200 1200" aria-hidden="true">
  <defs>
    <linearGradient id="trustworthy-gradient" x1="0%" y1="0%" x2="100%" y2="100%">
      <stop offset="0%" stop-color="#f4f1ea"/>
      <stop offset="45%" stop-color="#9aa7ff"/>
      <stop offset="100%" stop-color="#8d92ff"/>
    </linearGradient>
  </defs>
  <path fill="url(#trustworthy-gradient)" d="m924.22 579.79c-3.4414-6.0039-11.109-8.082-17.066-4.5664-5.9805 3.4414-8.0312 11.086-4.5664 17.066l220.07 381.2c10.863 18.824 10.863 41.285 0 60.109-10.891 18.848-30.348 30.078-52.098 30.078l-941.11-0.003906c-21.754 0-41.211-11.23-52.098-30.078-10.863-18.824-10.863-41.285 0-60.109l470.56-815.06c10.891-18.824 30.371-30.055 52.098-30.055s41.211 11.23 52.098 30.055l174.05 301.46c3.4414 5.9805 11.086 8.0312 17.066 4.5664 5.9805-3.4414 8.0312-11.086 4.5664-17.066l-174.05-301.46c-15.379-26.66-42.969-42.555-73.73-42.555s-58.348 15.895-73.73 42.555l-470.55 815.06c-15.406 26.66-15.406 58.473-0.023438 85.109 15.406 26.66 42.969 42.578 73.754 42.578h941.11c30.785 0 58.348-15.918 73.754-42.578 15.379-26.637 15.379-58.445-0.023438-85.109l-220.07-381.2z"/>
  <path fill="url(#trustworthy-gradient)" d="m660.5 521.8c0-33.348-27.148-60.496-60.496-60.496s-60.496 27.148-60.496 60.496v215.96c0 33.348 27.148 60.496 60.496 60.496s60.496-27.148 60.496-60.496zm-25 215.96c0 19.578-15.918 35.496-35.496 35.496s-35.496-15.918-35.496-35.496v-215.96c0-19.578 15.918-35.496 35.496-35.496s35.496 15.918 35.496 35.496z"/>
  <path fill="url(#trustworthy-gradient)" d="m600 835.91c-33.348 0-60.496 27.148-60.496 60.496s27.148 60.496 60.496 60.496 60.496-27.148 60.496-60.496-27.148-60.496-60.496-60.496zm0 95.996c-19.578 0-35.496-15.918-35.496-35.496 0-19.578 15.918-35.496 35.496-35.496s35.496 15.918 35.496 35.496c0 19.578-15.918 35.496-35.496 35.496z"/>
</svg>
